<svg xmlns="http://www.w3.org/2000/svg" viewBox="0 0 309.377 54.656"><defs><style>.a{fill:#fff;fill-rule:evenodd;}</style></defs><g transform="translate(154.688 27.328)"><g transform="translate(-154.689 -27.328)"><path class="a" d="M172.062.123,173.36,0l1.361.123,2.1.31,1.236.308,1.113.495.867.557.68.557,1.113,1.3.865,1.546.68,1.793.433,1.978V54.349H168.537V16.693l-.557-1.3-1.113-.99-1.236-.68-1.423-.187-1.236.187-1.421.865-.8,1.051-.741,1.421V54.349H144.671V1.423h15.335V6.554l1.978-1.67,1.236-1.111.865-.8L165.2,2.35l1.3-.68,1.545-.68,1.793-.557,2.226-.31Z" transform="translate(110.132)"/><path class="a" d="M75.9.808V41.986H86.847V53.734H60.382V.808Z" transform="translate(45.966 0.615)"/><path class="a" d="M114.225.808,120.1,34.566,126.591.808h11.994L128.507,53.734H105.568L97.84.808Z" transform="translate(74.482 0.615)"/><path class="a" d="M151.987.808V12.556H139.25V22.2h12.737V32.34H139.25v9.646h12.737V53.734H123.853V.808Z" transform="translate(94.284 0.615)"/><path class="a" d="M42.077,13.024V23.165H24.082V13.024Z" transform="translate(18.333 9.915)"/><path class="a" d="M66.874.808V12.556H53.89V22.2H66.874V32.34H53.89v9.646H66.874V53.734H38.616V.808Z" transform="translate(29.397 0.615)"/><path class="a" d="M106.814.808V12.556H93.892V22.2h12.922V32.34H93.892v9.646h12.922V53.734H78.5V.808Z" transform="translate(59.756 0.615)"/><path class="a" d="M0,13.314H18.055L22.135,8.8l2.226-2.1,2.783-2.226L29.556,2.8,32.585.948H0V13.314Z" transform="translate(0 0.722)"/><path class="a" d="M34.653.685C24.6,3.2,14.783,12.938,11.8,20.085,5.436,34.538,6.531,53.938,6.531,53.938s11-.079,15.631-.079c-.176-13.725-.079-22.227,1.885-28.9s10.6-11.075,10.6-11.075V.685Z" transform="translate(4.917 0.521)"/><path class="a" d="M169.921,30.184a4.965,4.965,0,1,1,1.407,3.631A4.986,4.986,0,0,1,169.921,30.184Zm5,6.154a6.129,6.129,0,1,0-4.411-1.766,6.138,6.138,0,0,0,4.411,1.766Zm-1.3-5.666h1.233l1.867,3.068h1.2l-2.013-3.117a1.841,1.841,0,0,0,1.833-1.948c0-1.4-.828-2.013-2.5-2.013h-2.695V33.74h1.073V30.672Zm0-.909V27.57h1.462c.747,0,1.543.162,1.543,1.039,0,1.087-.812,1.154-1.721,1.154Z" transform="translate(128.414 18.318)"/></g></g></svg>