<svg xmlns="http://www.w3.org/2000/svg" viewBox="0 0 259.352 45.922"><defs><style>.a{fill:#fff;fill-rule:evenodd;}</style></defs><g transform="translate(129.676 22.961)"><g transform="translate(-129.676 -22.961)"><path class="a" d="M0,.027c7.3.01,14.6-.1,21.9.068A11.172,11.172,0,0,1,32.879,9.263c1.073,5.907-1.991,10.949-6.719,12.3a1.667,1.667,0,0,0-.379.258,10.4,10.4,0,0,1,7.955,8.742c1.249,7.375-2.818,13.434-10.5,14.291a48.828,48.828,0,0,1-5.153.194c-6.026.032-12.053.032-18.08.043Q0,22.561,0,.027ZM9.706,36.49a1.3,1.3,0,0,0,.375.124c3.025,0,6.051.112,9.076-.032a4.848,4.848,0,0,0,5.064-4.9,4.9,4.9,0,0,0-4.691-5.26,55.977,55.977,0,0,0-5.865-.153c-1.3-.017-2.593,0-3.956,0v10.22Zm-.066-18.6h8.174a8,8,0,0,0,1.543-.1,4.419,4.419,0,0,0,3.809-3.314A4.668,4.668,0,0,0,18.7,8.456c-1.511-.075-3.025-.02-4.544-.022H9.7c-.03.326-.063.524-.065.72v8.73Z" transform="translate(0 -0.001)"/><path class="a" d="M125.741,42.386c-1.141-.212-2.294-.375-3.422-.645-8.827-2.115-13.325-9.713-12.553-18.108.645-7.029,4.189-12.168,10.939-14.551,9.422-3.321,20.349,1.163,21.962,13.7.213,1.657.2,3.342.3,5.162H118.64a7.986,7.986,0,0,0,4.838,6.407c4.414,1.873,8.547.939,12.446-1.57.231-.144.442-.324.667-.484.023-.016.066,0,.222,0L140.62,37.9c-1.255.782-2.413,1.631-3.678,2.268a20.1,20.1,0,0,1-7.428,2.005,5.92,5.92,0,0,0-.876.207Zm8.83-20.37c.17-4.047-3.687-7.138-8.569-6.945-4.061.16-7.672,3.6-7.239,6.945Z" transform="translate(48.333 3.536)"/><path class="a" d="M149.981,42.389c-1.4-.288-2.831-.483-4.208-.864a15.939,15.939,0,0,1-11.714-14.176c-.563-6.414,1.3-11.848,6.444-15.893,7.8-6.131,23.133-4.74,26.18,9.766a22.147,22.147,0,0,1,.412,3.169c.071,1.127.016,2.26.016,3.564H142.935a7.434,7.434,0,0,0,2.083,4.478,10.085,10.085,0,0,0,9.615,2.644,12.852,12.852,0,0,0,6.327-2.912l3.89,5.705c-1.008.679-1.931,1.395-2.939,1.946a20.572,20.572,0,0,1-8.059,2.36,7.912,7.912,0,0,0-.98.213Zm-6.987-20.375h15.824c.2-3.923-3.561-7.039-8.294-6.947-4.2.082-7.833,3.4-7.53,6.947Z" transform="translate(59.032 3.533)"/><path class="a" d="M38.057,42.1c-1.034-.212-2.075-.395-3.1-.64A12.491,12.491,0,0,1,24.838,28.641q-.009-9.4,0-18.809V8.707h8.6V9.9c0,5.925.017,11.851-.009,17.775-.012,2.687.811,4.963,3.357,6.133a7.759,7.759,0,0,0,8.14-.6,6.339,6.339,0,0,0,2.4-5.56q.017-8.836,0-17.673v-1.3h8.5V28.449c0,7.483-4.662,12.626-12.125,13.41a10.292,10.292,0,0,0-1.093.231Z" transform="translate(10.94 3.826)"/><path class="a" d="M90.326,44.974V.04H121.58V4.4c0,.965-.065,1.935.019,2.893s-.3,1.138-1.178,1.134c-6.167-.035-12.334-.019-18.5-.019H99.968v9.462h1.164c4.65,0,9.3.026,13.953-.023.941-.01,1.16.288,1.14,1.177-.058,2.368-.02,4.737-.02,7.223H99.9V44.974Z" transform="translate(39.804 0.017)"/><path class="a" d="M158.481,41.215V9.869c0-1.32,0-1.331,1.364-1.32,4.715.043,9.451-.157,14.142.206,6.685.517,11.917,3.528,14.394,10.126a16.664,16.664,0,0,1-4.516,18.547,17,17,0,0,1-10.373,3.824c-4.849.176-9.71.055-14.565.059a2.771,2.771,0,0,1-.441-.1Zm8.195-6.9h4.731c5.548,0,9.042-3.129,9.664-8.644a9,9,0,0,0-5.113-9.307c-3.008-1.232-6.15-.576-9.282-.752V34.323Z" transform="translate(69.837 3.759)"/><path class="a" d="M62.847,16.057H48.288V8.678h26.32c0,1.392-.069,2.789.02,4.178a4.449,4.449,0,0,1-1.114,3.272C69.137,21.575,64.828,27.077,60.5,32.561c-.232.288-.454.6-.815,1.075h15.1v7.515H48.208c0-2.053-.03-4.1.029-6.155.01-.352.364-.72.614-1.036q6.665-8.488,13.342-16.965c.186-.236.343-.493.656-.945Z" transform="translate(21.24 3.823)"/><path class="a" d="M68.284,16.054V9.461c0-.235.04-.471.068-.775h26.24c0,1.982.022,3.933-.023,5.882,0,.288-.3.6-.5.864q-6.771,8.6-13.564,17.191c-.223.288-.422.585-.771,1.069h1.317c4.27,0,8.542.017,12.812-.014.794,0,1.091.189,1.066,1.034-.058,2.128-.019,4.257-.019,6.45h-26.6c0-2.125-.017-4.213.022-6.3,0-.261.279-.534.467-.774Q75.3,25.8,81.821,17.52c.331-.422.657-.85,1.137-1.471Z" transform="translate(30.09 3.827)"/></g></g></svg>