<svg xmlns="http://www.w3.org/2000/svg" viewBox="0 0 126.492 126.5"><defs><style>.a{fill:#fff;}</style></defs><path class="a" d="M15474.494-17875.5v0H15348V-18002h126.492v126.5Zm-97.474-30.213c-2.524,0-3.654,2.107-3.654,4.2,0,1.73,1.471,5,7.038,5,4.369,0,8.045-1.857,11.236-5.682,2.574-3.16,4.941-8.445,7.034-15.705l4.572-18.555c.072-.006.141-.006.213-.006h1.039c.4,0,.585-.145.65-.52l.126-1.3a.779.779,0,0,0-.117-.625.5.5,0,0,0-.4-.152c-.258,0-.566.016-.994.037l-.061,0c-1.088.057-2.908.154-6.617.154s-5.924-.1-7.239-.15l-.131-.006c-.531-.023-.915-.039-1.209-.039-.412,0-.589.141-.65.52l-.263,1.365a.648.648,0,0,0,.1.535.6.6,0,0,0,.486.178h2.142a2.565,2.565,0,0,1,2.1.648,2.983,2.983,0,0,1,.235,2.475l-1.428,6.758a3.647,3.647,0,0,1-1.3,2.342,11.784,11.784,0,0,1-6.37,1.494,10.068,10.068,0,0,1-7.312-3.3c-2.36-2.541-3.607-6.277-3.607-10.8a33.117,33.117,0,0,1,1.5-9.885,28.87,28.87,0,0,1,4.044-8.242,20.393,20.393,0,0,1,5.921-5.648,13.6,13.6,0,0,1,7.129-2.1,11.687,11.687,0,0,1,4.664.889,8.877,8.877,0,0,1,3.2,2.332,11.667,11.667,0,0,1,2.4,9.2.76.76,0,0,0,.035.641.422.422,0,0,0,.354.137h1.3a.806.806,0,0,0,.25.049c.213,0,.3-.152.4-.437l3.769-13c0-.369-.112-.52-.389-.52l-.908-.262a.909.909,0,0,0-.282-.051c-.228,0-.368.119-.368.313-.644,1.412-1.033,2.078-1.821,2.078a2.634,2.634,0,0,1-1.559-.781,17.247,17.247,0,0,0-10.531-3.248c-15.055,0-27.3,12.48-27.3,27.82,0,8.785,6.654,17.678,19.373,17.678a29.781,29.781,0,0,0,8.114-1.26l-2.472,9.746a42,42,0,0,1-3.4,8.949c-1.3,2.264-2.714,3.365-4.315,3.365-1.279,0-1.887-.244-2.029-.812a1.691,1.691,0,0,1,.136-.809,7.9,7.9,0,0,0,.271-1.9A3.129,3.129,0,0,0,15377.021-17905.715Zm39.93-59.234c-.659,0-.8.121-.939.537l-.267,1.6a.413.413,0,0,0,.02.385.47.47,0,0,0,.382.152h2.413a2.19,2.19,0,0,1,1.87.729c.493.666.5,1.818,0,3.428l-5.761,18.561a39.747,39.747,0,0,0-1.342,8.439c0,7.678,5.66,12.262,15.14,12.262,13.331,0,18.119-9.5,21.307-19.766l5.765-18.361c1.17-3.658,2.574-5.291,4.554-5.291h1.071c.446,0,.673-.18.673-.537l.267-1.338a.7.7,0,0,0-.036-.607c-.1-.133-.3-.2-.633-.2-.194,0-.46.016-.842.043l-.044,0c-.914.057-2.444.152-5.146.152-2.971,0-5.121-.1-6.406-.152h-.026l-.147-.008c-.486-.021-.838-.037-1.06-.037-.661,0-.795.252-.936.668l-.2,1.473a.4.4,0,0,0,.058.35.676.676,0,0,0,.548.188h2.142a2.056,2.056,0,0,1,1.768.719c.669.885.617,2.645-.159,5.381l-4.825,17.15a40.444,40.444,0,0,1-3.4,8.533,18.8,18.8,0,0,1-4.1,5.07,13.918,13.918,0,0,1-8.71,2.945,10.867,10.867,0,0,1-5.312-1.424c-2.522-1.523-3.8-4.064-3.8-7.553,0-2.426,1.132-6.295,1.74-8.375v0c.11-.377.206-.707.27-.937l5.494-17.955c.954-3.119,2.5-3.551,4.021-3.551h1.875a.665.665,0,0,0,.669-.537l.267-1.338c0-.51-.109-.8-.669-.8-.173,0-.447.012-.879.035-1.211.057-3.466.162-7.43.162-4.527,0-6.947-.105-8.247-.162C15417.466-17964.937,15417.159-17964.949,15416.95-17964.949Z" transform="translate(-15348.002 18002.002)"/></svg>