<svg xmlns="http://www.w3.org/2000/svg" viewBox="0 0 112.674 156.738"><defs><style>.a{fill:#fff;}</style></defs><path class="a" d="M15350.451-12905.262h0a40.574,40.574,0,0,1-1.957-7.611,36.537,36.537,0,0,1-.461-7.486,25.44,25.44,0,0,1,1.648-8.139,40.531,40.531,0,0,1,7.15-12.359,23.4,23.4,0,0,1,9.078-6.34,34.24,34.24,0,0,1,12.727-2.492c.484,0,.918.01,1.262.016h.023l.051,0c2.191.051,7.063.727,7.109.732v-48.176a11.581,11.581,0,0,0-1.387-2.975,5.879,5.879,0,0,0-4.811-2.973l-.107,0c-2.4.049-6.621,1.5-9.742,2.719-3.359,1.307-6.229,2.633-6.254,2.646v-.006a21.041,21.041,0,0,1,2.148-4.9,20.245,20.245,0,0,1,3.189-4.121,16.687,16.687,0,0,1,5.047-3.437,36.4,36.4,0,0,1,6.539-2.2,18.385,18.385,0,0,1,3.932-.49,6.412,6.412,0,0,1,1.445.123v-30.559a8.542,8.542,0,0,0-.914-3.336,6.181,6.181,0,0,0-5.895-3.338c-.121,0-.244,0-.365.008a19.406,19.406,0,0,0-8.752,2.66,20.724,20.724,0,0,0-3.5,2.473l.014-.018c.391-.551,2.479-3.465,5.279-6.654a57.756,57.756,0,0,1,5.18-5.256,22.382,22.382,0,0,1,5.59-3.789,16.264,16.264,0,0,1,6.42-1.465,10.47,10.47,0,0,1,5.148,1.275,9.8,9.8,0,0,1,3.414,3.184,21.192,21.192,0,0,1,2.428,5.205,16.961,16.961,0,0,1,.58,2.385v17.641l1.4.564,5.549-3.676v-16.746h4.164v14.295l17.064-10.937.01,0c.256.2,1.633,1.273,3.576,3.09a71.868,71.868,0,0,1,7.789,8.6,55.344,55.344,0,0,1,7.543,13.072,38.8,38.8,0,0,1,2.85,16.51,41.335,41.335,0,0,1-3.955,15.559,45.419,45.419,0,0,1-7.42,10.982,50.355,50.355,0,0,1-7.176,6.508,33.614,33.614,0,0,1-3.217,2.143,10.218,10.218,0,0,1,1.668,1.9,96.043,96.043,0,0,1,6.133,9.615c5.912,10.213,14.529,25.9,14.613,26.055l0,0a26.559,26.559,0,0,0,1.758,2.584c.938,1.211,2.316,2.705,3.543,2.961a18.417,18.417,0,0,0,3.066.477h0s0,0,0,.008a22.064,22.064,0,0,1-1.836,2.1,12.7,12.7,0,0,1-4.2,2.971,15.649,15.649,0,0,1-5.367,1.064,8.462,8.462,0,0,1-6.809-3.094c-1.871-2.246-7.633-12.779-12.137-21.223-4.871-9.127-9.381-17.881-9.42-17.959-.014-.027-1.426-2.719-3.674-3.436s-4.605-1.68-4.629-1.689v28.412l2.7,1.979-15.221,12.857a69.888,69.888,0,0,0-6.123-5.271,53.156,53.156,0,0,0-13.982-8.02c-4.639-1.623-7.969-2.348-10.791-2.348-4.189,0-7.666,1.629-11.629,5.443a14.325,14.325,0,0,0-4.518,10.361,14.172,14.172,0,0,0,2.15,7.9,17.789,17.789,0,0,0,4.254,4.441l-8.988,8.988ZM15404-12973.3a4.748,4.748,0,0,0-2.213.344v27.654l6.578,2.117v-28.434a7.638,7.638,0,0,0-3.9-1.674C15404.307-12973.3,15404.15-12973.3,15404-12973.3Zm18.91-65.551-10.354,6.719v48.24c.012.014,1.469,1.344,5.709,4.459a8.033,8.033,0,0,0,4.861,1.572,14.415,14.415,0,0,0,6.768-2.006,16.115,16.115,0,0,0,6.176-6.635c2.941-5.375,4.432-12.908,4.432-22.387,0-11.5-4.783-19.029-8.8-23.326a32.776,32.776,0,0,0-6.047-5.084,22.02,22.02,0,0,0-2.748-1.553Zm-14.863,9.75h0l-6.428,4.387V-12992l6.172,4.086.256-41.186Z" transform="translate(-15347.998 13062)"/></svg>