<svg xmlns="http://www.w3.org/2000/svg" viewBox="0 0 129.357 129.707"><defs><style>.a{fill:#fff;}</style></defs><g transform="translate(64.679 64.854)"><g transform="translate(-64.679 -64.854)"><path class="a" d="M64.311,22.732a34.4,34.4,0,0,1,6.606,4.848l-.73.734c-3.669-.39-7.536.1-11.016.151-.388-.392-1.17-.982-.441-1.472l5.582-4.26Zm64.9,45.6a11.22,11.22,0,0,1-.442,4.775c-6.706,1.907-11.111-5.193-17.617-4.123l.734,3.681c6.019.2,9.78,5.971,16,5.722-.883,1.764.394,6.413-3.52,4.555-4.063-.977-7-4.555-11.454-4.555-.537.986-.2,2.352-.291,3.519,4.7.736,8.075,4.707,12.771,5.439-.441,1.614-.879,3.421-2.2,4.4-3.82-.93-6.8-4.36-10.871-4.263l-.724,3.379c3.865.1,6.362,3.519,9.835,4.545.1,1.425-1.178,2.7-1.912,3.972-3.084-.926-5.435-3.575-8.958-3.379-.049-1.328.739-2.835.442-4.254-3.957,1.177-6.611-2.5-9.543-4.7-.085-7.218-7.682-11.953-8.084-18.714A10.035,10.035,0,0,1,94.121,64c2.5-5.774,1.713-13.271-1.025-18.654a10.559,10.559,0,0,0-3.681-3.369c2.011,4.26,4.46,9.294,3.238,14.53-.142,4.044-2.528,7.927-2.555,11.825a8.13,8.13,0,0,0,1.085,4.184c3.184,5.733,8.911,11.161,6.757,18.351-.592,2.209-2.356,3.917-2.8,6.165,3.724,3.084,7.246,6.56,12.187,6.756,1.76-1.124.783-6.111,4.4-3.811l5.29,2.645a8.489,8.489,0,0,1-2.644,3.66c-2.007-.977-3.964-2.147-6.466-2.052a3.828,3.828,0,0,0-1.317,2.786,11.777,11.777,0,0,1,4.847,2.063c-.683,1.471-2.016,2.392-3.237,3.519l-4.1-1.467c-.685.982-2.108,2.01-1.609,3.086a8.564,8.564,0,0,1,2.636,1.619,27.257,27.257,0,0,1-6.315,4.545c-1.9-6.218-8.17-10.577-7.632-17.768l-.291-.291c-1.473,1.657-.982,4.306-.886,6.456,1.763,4.5,5.97,7.982,6.607,12.92-.736,1.271-2.4,1.524-3.669,2.063.148-8.9-13.36-15.659-4.7-24.665,2.89-4.41,7.729-8.62,6.014-14.692-1.761-5.863-7.988-9.5-7.934-16.068l.01-.513c1.419-6.854,5.727-14.147,2.2-21.438-.982-2.933-3.177-6.265-6.163-7.494a20.979,20.979,0,0,1,3.669,20.263C84.764,61.875,83,65.123,82.82,68.329h-.011a7.676,7.676,0,0,0,1.328,4.917c3.379,5.484,9.251,11.507,5.873,18.654-3.818,5.724-10.473,11.547-6.756,19.086,2.692,4.5,6.856,9,5.732,14.53l-4.4,1.467c2.937-10.324-11.455-16.391-5.43-26.719,3.721-5.53,10.372-10.719,6.605-18.059-2.251-4.548-6.9-7.24-6.756-12.92l.16-.955c1.516-8.062,7.643-15.69,3.359-24.3a15.3,15.3,0,0,0-5.877-6.606l-.151.15A17.8,17.8,0,0,1,80.314,56.8c-1.257,3.76-4.015,7.5-4.575,11.534A9.47,9.47,0,0,0,76.8,74.273c3.181,5.037,8.758,10.38,5.278,16.893-3.666,5.379-9.786,10.613-7.341,17.608,2.693,6.12,8.315,11.95,5.279,19.539l-4.545,1.026c3.618-7.4-1.809-14.733-4.988-21.147-3.868-9.2,8.311-13.608,8.507-22.021-.047-5.43-5.819-8.513-7.039-13.505-2.5-2.108-5.089.838-8.075.291-2.2.442-5.591-3.036-6.908.735-1.567,5.53-8.709,9.592-5.571,16.148,2.987,5.827,10.174,10.087,7.773,17.627-2.149,7.043-9.251,13.747-4.846,21.872-1.809-.586-5.188.536-5.139-2.354-2.788-9.837,9.1-15.568,5.43-25.4-1.709-6.021-9.5-9.349-7.783-16.59,1.268-5.962,7.959-10.13,7.019-16.662a9.648,9.648,0,0,0-.4-1.69c-2.5-7.047-7.592-14.1-4.555-22.322.834-2.349,2.5-4.356,3.962-6.456-4.844,2.592-7.289,8.075-7.189,13.653-.212,6.066,4.27,11.262,4.91,16.813A10.243,10.243,0,0,1,48.891,75.3c-3.178,4.313-7.336,8.861-5.43,14.541,1.812,5.728,8.957,9.2,8.517,15.858-.049,7.877-9.2,12.781-6.607,21.59l-4.555-1.478c-1.809-7.828,6.512-11.835,6.605-19.076C48.6,98.4,37.976,95.314,38.614,87.2,38.568,81.028,44,77.119,46.4,71.933a9.95,9.95,0,0,0,.493-3.6C46.6,62.6,41.426,58.11,42.284,51.66a20.423,20.423,0,0,1,4.988-12.478c-4.256,1.708-6.014,6.606-7.189,10.719-2.04,6.594,2.83,12.523,3.317,18.431a9.761,9.761,0,0,1-2.875,7.856c-3.526,4.155-7.1,9.4-4.556,14.982,2.7,6.162,11.163,10.956,7.494,18.643-2,4.846-6.8,8.515-6.606,14.239A12.49,12.49,0,0,1,33.187,122c0-7.291,10.372-11.845,5.43-19.528-.438,1.516-.532,3.576-.875,5.289-1.72,4.455-5.39,8.021-6.76,12.627a20.212,20.212,0,0,1-6.607-4.7l2.646-1.619a8.326,8.326,0,0,0-1.76-2.644c-1.718-.241-2.846.886-4.263,1.328a21.993,21.993,0,0,1-3.379-3.379c.879-2.5,7.739-.433,4.264-4.545-2.347-1.467-4.7.629-6.757,1.608l-2.786-3.519c2.4-1.468,4.79-3.527,7.773-2.937.735,1.324.787,3.27,2.2,3.962,5.042-.1,8.615-3.911,12.48-6.9C32.1,93.03,29.907,87.5,32.3,82.649c1.917-4.858,6.913-8.949,7.139-14.319a9.536,9.536,0,0,0-.672-3.892c-2.641-6.8-3.574-16,1.468-22.022-2.739.737-4.358,4.154-5.289,6.748-3.031,6.644.8,12.8.935,19.167a13.722,13.722,0,0,1-.352,3.449c-2.6,5.237-6.8,9.831-7.482,15.857-2.987,1.9-5.438,5.236-9.694,4.112a11.283,11.283,0,0,0,.583,4.112c-3.374-.142-5.676,2.345-8.517,3.52-1.514-.485-1.907-2.442-2.494-3.812,3.326-1.123,5.725-4.457,9.544-4.4.442-1.229-.249-2.356-.443-3.53-4.75-2.108-12.279,10.422-12.912-.441,4.746-.293,7.779-4.7,12.48-5.139l.14-3.519C11.4,78,7.968,83.481,2.636,82.94l-1.176-4.7C7.627,78.629,11.3,73.1,17.177,72.8c.78-1.026.875-2.544,1.025-3.962C11.79,68.005,7.39,75.112.585,72.953c0,0-.235-2.957-.362-4.624H.233c-.047-.653-.091-1.107-.091-1.107,6.069,2.355,11.4-2,16.59-4.254,1.321-.4,3.379.29,3.972-1.177-.052-1.126,2-2.442.293-3.228-7.59-1.03-12.631,8.124-20.414,3.961L0,61.349c1.618-22.12,14.092-43.5,34.793-54.028C43.177,2.53,53.594.087,64.1,0c12.677-.1,25.485,3.22,35.015,9.965,9.251,5.676,18.1,15.03,22.908,24.525,4.594,8.321,6.708,17.655,7.339,27.594-8.029,6.066-13.415-5.715-21.59-3.079a10.152,10.152,0,0,0,1.619,3.669c7.245-.052,12.235,7.535,19.82,4.545l.008,1.107ZM36.993,41.084C31.9,37.756,25.448,40.89,20.7,42.7a15.939,15.939,0,0,0-6.026-11.45,4.021,4.021,0,0,0-1.328-.593.757.757,0,0,0-.734.441c1.71,10.521-5.129,17.862-9.975,25.844,1.614,1.318,4.206,1.121,6.164.734,5.138-2.055,10.032-5.633,16.15-4.4,1.809-3.083,4.848-6.069,7.339-8.516,1.523-1.318,3.618-2.155,4.7-3.669Zm15.567,6.61c-.1.634.049,1.763,1.025,1.326,1.519-2.1,4.21-.439,5.873-.291v-.592a5.275,5.275,0,0,0-4.7-2.081,6.967,6.967,0,0,0-1.318.18,1.141,1.141,0,0,0-.884,1.458Zm23.932-6.305c-1.367-3.035-4.5-4.264-7.341-5a38.283,38.283,0,0,0-4.274-.3c-.269,0-.537-.006-.8,0-4.013.081-7.846,1.111-10.187,4.413-.336.93-1.815,2.241-.442,3.077,3.083-.2,6.6-.583,8.658,2.063,0,2.352,1.518,5.478-1.025,6.606-2.108-1.951-4.6.831-6.9-.736-1.078-.637-1.761.107-2.2,1.037a17.24,17.24,0,0,0,8.217,16.139c2.3.827,5.392,1.619,7.794.441,5.775-2.687,8.166-8.852,9.243-14.53-.144-1.08-.093-3.186-1.609-3.238-1.712,1.085-4.209.443-6.023,0-1.073.347-1.122,1.916-2.343,2.214l-.744-.593c-.637-2.687-1.031-6.507,1.468-8.367a13.771,13.771,0,0,1,8.958-.734c.54-.93-.292-1.662-.442-2.494Zm-2.946,4.825c-.194.005-.383.014-.574.021-1.025.684-4.014.192-2.936,2.493,1.861-1.472,4.455-.44,6.315.291.688-.341.538-1.026.584-1.618-.6-1.111-2.024-1.215-3.39-1.189ZM94.855,25.521c-3.623-.192-6.657,1.865-9.985,2.794-.29-2.832,1.861-5.824,2.353-8.667-5.382.346-9.645,3.586-14.1,6.173q-1.545-3.734-3.087-7.494l5.873-5.582.15-.736-7.933-.441c-1.366-2.394-1.9-5.278-3.52-7.481-1.321,2.5-2.209,5.138-3.53,7.631l-7.924.443v.583l6.014,5.43c-.735,2.791-1.418,5.825-3.228,7.934-3.524-2.111-7-4.407-10.86-5.873-.93-.3-2.255-.788-3.087-.15,1.222,2.693,2.933,5.589,2.645,8.527-1.616-.3-2.886-1.334-4.4-1.769-1.816-.5-3.97-1.464-5.732-.875,2.938,4.109,5.335,8.41,6.164,13.353,9.743-4.7,21.106-7.282,32.9-5.275,5.53.879,10.613,3.132,15.556,4.987.193-5.184,3.472-9.351,5.729-13.514Zm16.732,28.195c4.988,1.32,9.993,6.755,15.275,3.229-4.6-7.633-11.447-14.683-9.543-24.666a1.149,1.149,0,0,0-.874-1.469c-2.984,1.22-5.3,4.16-6.476,7.05A44.128,44.128,0,0,1,108.511,43c-3.575-1.861-7.39-3.663-11.745-3.228-1.571.2-3.824.3-4.112,1.912,4.943,2.641,9.008,7.05,12.037,11.745a23.479,23.479,0,0,1,6.9.289Zm-52.27,6.9.141.885c1.912,1.274,2.5,3.434,5.148,3.238,2.348.139,4.109-2.06,5.279-3.821-3.177-.439-7.044.24-10.569-.3Zm2.644-3.961c.1.392-.242.979.291,1.177,1.566-.34,4.4.833,5.279-1.026a3.518,3.518,0,0,0-2.654-.994,5.306,5.306,0,0,0-2.916.844Z" transform="translate(0 0.005)"/><g transform="translate(105.353 119.195)"><path class="a" d="M206.969,241.142v-8.734h-3.118V230.63H212.2v1.778h-3.112v8.734Z" transform="translate(-203.851 -230.63)"/><path class="a" d="M222.619,241.144V230.635h3.175L227.7,237.8l1.885-7.169h3.184v10.509H230.8v-8.273l-2.085,8.273h-2.043l-2.079-8.273v8.273Z" transform="translate(-212.919 -230.632)"/></g></g></g></svg>